<svg id="tn-map" xmlns="http://www.w3.org/2000/svg" viewBox="0 0 874.16 239.54">
    <defs>
        <style>
			.cls-1 {
			fill: #d8d86a;
			}
			.cls-1,
			.cls-14 {
			stroke: #d8d86a;
			}
			.cls-1,
			.cls-10,
			.cls-11,
			.cls-12,
			.cls-13,
			.cls-14,
			.cls-2,
			.cls-3,
			.cls-4,
			.cls-5,
			.cls-6,
			.cls-7,
			.cls-8,
			.cls-9 {
			stroke-width: 0.96px;
			}
			.cls-2 {
			fill: #bae8bf;
			}
			.cls-13,
			.cls-2 {
			stroke: #bae8bf;
			}
			.cls-3 {
			fill: #51b4e0;
			}
			.cls-11,
			.cls-3 {
			stroke: #51b4e0;
			}
			.cls-4 {
			fill: #efc878;
			}
			.cls-4,
			.cls-8 {
			stroke: #efc878;
			}
			.cls-5 {
			fill: #76ccce;
			}
			.cls-5,
			.cls-7 {
			stroke: #76ccce;
			}
			.cls-6 {
			fill: #ab7cc1;
			}
			.cls-6,
			.cls-9 {
			stroke: #ab7cc1;
			}
			.cls-7 {
			fill: #1f959e;
			}
			.cls-8 {
			fill: #dfa726;
			}
			.cls-9 {
			fill: #7d4293;
			}
			.cls-10 {
			fill: #af4880;
			stroke: #d37db0;
			}
			.cls-11 {
			fill: #0081c6;
			}
			.cls-12 {
			fill: #d26b54;
			stroke: #e29d91;
			}
			.cls-13 {
			fill: #79d186;
			}
			.cls-14 {
			fill: #bbbe19;
			}
			.cls-15 {
			fill: #fff;
			width: 150%;
			}
			.knoxville path:hover {
			fill: #9adda3;
			}
			.chattanooga path:hover {
			fill: #299bd3;
			}
			.cookeville path:hover {
			fill: #da8472;
			}
			.nashville path:hover {
			fill: #c16298;
			}
			.memphis path:hover {
			fill: #4bb1b6;
			}
			.jackson path:hover {
			fill: #e7b84f;
			}
			.murfreesboro path:hover {
			fill: #945faa;
			}
			.johnson_city path:hover {
			fill: #cacb42;
			}
		</style>
		
    </defs>
    <g id="_3d-bg" data-name="3d-bg">
        <path
            class="cls-1"
            d="M889.78,24.68c-8.06-.17-16.2-.31-24.07,1.44-3.2.71-6.33,1.72-9.56,2.31a71.73,71.73,0,0,1-10,.87L665.23,36.64a8.81,8.81,0,0,0-4.17.87,8.8,8.8,0,0,0-2.57,2.88c-2.11,3.17-4.17,6.38-6.25,9.57L649,54.88c-.95,1.46-2.67,3.26-3.21,4.92-.49,1.5.86,3.5,1.5,5l2.28,5.42,4.56,10.82c6.65-3.1,15.63,1.49,17,8.69l2.5,1.5,1.77-2.74,6.44,3.33c.77-3,4.52-4.18,7.67-4.27s6.65.21,9.06-1.8c1.12-.94,1.85-2.26,2.91-3.26,3.64-3.46,9.53-2,14.27-.34l3,12.87,4.33,1.28,4.49-6.76,7.07,8.61q-3,4.45-5.84,9a4.31,4.31,0,0,0-.93,2.63,4.39,4.39,0,0,0,1.8,2.62L753.6,133.3a8.62,8.62,0,0,0,3.89,2.34c2.45.46,4.75-1.21,6.68-2.78l13.59-11a5.72,5.72,0,0,1,2.71-1.46c2-.24,3.64,1.77,3.8,3.75s-.74,3.88-1.61,5.67l5.45,4.25c11.27-7.5,17.84-22.43,31.07-25.28a19.91,19.91,0,0,1,16.56,4c7.26-12.46,14.79-25.25,26.19-34.07,0,2.35,3,3.74,5.22,3s3.72-2.78,5.07-4.7C878,68.68,884,60,885.31,49.92c1.12-8.65-1-18.61,4.64-25.24Z"
            transform="translate(-16.96 -23.94)"
        />
        <path
            class="cls-2"
            d="M770.66,113.28c0-.15.05-.3.08-.45L745.08,89.6a6.06,6.06,0,0,1-1.78-2.22c-1.57-4.24,6.09-5.95,7.69-10.18L742.5,66.56a13.49,13.49,0,0,1-9,6.24,85.53,85.53,0,0,0-2.95-13.61c-5.43-1.78-12.21-3.27-16.18.84-1,1.09-1.78,2.49-3,3.4-2.22,1.68-5.3,1.27-8.08,1.33s-6.14,1.33-6.44,4.1l-6.85-3.44-1.4,2.9-2.51-1.5c-1.39-7.2-10.37-11.78-17-8.68l-8.75-20.76q-39.2.79-78.41.32l11.95,23h-27c4.86,6.69,9.92,15.29,6.18,22.66A22.65,22.65,0,0,0,571,87.55c-.47,1.8,0,3.71-.23,5.55-.53,4.66-6,8-10.38,6.43-.9-.33-5.51,15.39-4.45,17.36,1.3,2.41,4.61,4.5,6.67,6.23,2.61,2.2,5.27,4.36,7.71,6.75,4.64,4.54,8.61,10.33,8.89,16.82l38.88-5.87-13.18,15.72,5.07,1.89-.51,4a33.59,33.59,0,0,0-18.85,17.25c3.76.23,6,4.18,7.55,7.63q4.1,9.1,8.18,18.23a12.17,12.17,0,0,1,1.38,4.66c.1,5.25-6.08,8.33-8,13.22l20.71,9.29c1.63-3.84,6.35-5.22,10.51-5.54s8.65-.13,12.1-2.47c3.64-2.46,5.08-7,6.85-11A49.24,49.24,0,0,1,672.33,190a30.6,30.6,0,0,1,9.16-3.18c2.87-.46,5.8-.34,8.71-.55A40.63,40.63,0,0,0,722,166.41C730.39,162,740.27,160.48,748,155s12.37-14.33,16.71-22.8L755.57,136c4.91-.69,8.95-4.48,11.24-8.89S769.88,118,770.66,113.28Z"
            transform="translate(-16.96 -23.94)"
        />
        <path
            class="cls-3"
            d="M635.14,209.8l-20.45-9.46c4.51-.12,7.83-4.75,8.14-9.24s-1.58-8.82-3.43-12.92l-5.23-11.62c-1.24-2.77-2.54-5.6-4.7-7.73s-5.43-3.41-8.29-2.4l-.92-9.55-4.47,2.92a12.78,12.78,0,0,0-7.83-7.15l1.49-4.27a9.4,9.4,0,0,1-5.08-4.22,43.44,43.44,0,0,1-24.18,10.41l-.89-2.68q-10.71.56-21.43.66c-.59,3.59-2.67,6.73-4.69,9.75-4.73,7.07-9.95,14.54-17.9,17.58a39.09,39.09,0,0,1-9.49,2q-14.85,1.78-29.8,2.47a39.84,39.84,0,0,0,.75,18.45l-11.3,2.79c-1.28.32-3.35.39-4.21,1.44s-.91,3-1,4.15c-.55,6.28,2.66,12.72.47,18.89-.61,1.7-1.62,3.27-1.87,5-.43,3.13,1.57,6,3.48,8.57l2.25-1.23-2.36,1.39L463.44,263c29.05.29,153-3.41,153-3.41l16.64-22.65S635,220.32,635.14,209.8Zm-132-37.53.51.36h0l-.5-.35Z"
            transform="translate(-16.96 -23.94)"
        />
        <path
            class="cls-4"
            d="M313.73,73.62l-7.21-1.06L301.4,35.79l-20.67.3.18-3.61-17-1.83a7.9,7.9,0,0,0-4.16.3,8,8,0,0,0-3,3.27l-7.58,12.22c-1.22,2-2.52,4-4.55,5.09s-4.45,1-6.75,1L149.1,49.78c-9.78-.3-20.45-.33-28.17,5.68a4.84,4.84,0,0,1-1-5.21c-3.44-1.72-7,2-9.11,5.2l-7.19,11.14c-1.61,2.49-3.26,5.12-3.53,8.07-.18,2,.26,3.9.18,5.85-.18,4.33-2.87,8.11-5.61,11.47S88,103,88,103l5.13,10.54L85,128.25s-1.29,13.09,4.31,13.84l-1.92,5.41c5.52-4.85,13.19-8.13,20.22-6s11.72,11.36,7.43,17.32l24.88,13.75a9,9,0,0,1,3.37,2.63,7.5,7.5,0,0,1,.91,4.65c-.54,8.8-6.59,16.15-10,24.29-7.26,17.41-2.66,37.55-5.84,56.14,36.83,1.14,122.26.61,122.26.61l14.94-22.95s1.22-18.9.61-35.36a16.34,16.34,0,0,1,11.65-.83,203.76,203.76,0,0,0,16.9-25.54c2.16-3.87,4.26-8.14,3.69-12.54s-5.07-8.5-9.24-7l5.25-9.28,1.12-2L306,127c2.72-4.81,5.89-8,5-13.69-2.06-13.4-1.36-26.79,3.28-39.63ZM306,69.37h-.15v-.06H306Z"
            transform="translate(-16.96 -23.94)"
        />
        <path
            class="cls-5"
            d="M158.55,151a1.08,1.08,0,0,0-.52-.59,26.07,26.07,0,0,0-3.27-1.34q-3.3-1.4-6.51-3a133.53,133.53,0,0,1-12.5-6.92q-2.79-1.74-5.49-3.62c1.12-3.57,2.23-7.51.8-11-1.86-4.52-7.36-6.4-12.25-6.34s-9.71,1.5-14.59,1.29L102.49,125a33.39,33.39,0,0,0-9.1-2c-1.5,3-1.67,6.56-2.39,9.88s-2.3,6.82-5.4,8.21c-4.29,1.91-10.58-.5-13.2,3.39l2.24,15.39a65.71,65.71,0,0,0-17.31,7.43l2.6,6.51,3.41-1.24c2.72,2.46,1.33,7.83-2.24,8.67l-4.87-5.1a12.39,12.39,0,0,1-7.64,3.51l0,5.11,3.84,2.05c-2.94-.25-3.46,4.09-5.16,6.5a10.59,10.59,0,0,1-3,2.59l-10.52,6.8-.07,5.12a17.75,17.75,0,0,0,5.93-3.55L44,209c-2.74.43-1.91,4.83-3.61,7-.86,1.11-2.32,1.54-3.48,2.33s-2.08,2.45-1.21,3.56,2.25.75,3.49.74,2.82.85,2.43,2c-4.69.58-10.71,9.19-9.43,9.23-5,5.22-15.29,20.26-14.74,23,21.72.73,96.84,3,111.4,3.42L141,241.55a15.71,15.71,0,0,0,3.23-10.22l2.3-45.74,10.5-2.22c.3-.06.35-6.91.39-7.61l.39-7.77q.41-7.76.8-15.53A4.2,4.2,0,0,0,158.55,151Z"
            transform="translate(-16.96 -23.94)"
        />
        <path
            class="cls-6"
            d="M477.57,239.78a30.08,30.08,0,0,0,.63-7.71c-.06-8.25-.14-16.69-3-24.44-.75-2.08-1.72-4.26-1.29-6.43.29-1.49,1.21-2.77,1.77-4.17,2.31-5.73-1.5-12.24-.51-18.34.26-1.58.85-3.18.48-4.75s-1.63-2.74-2.74-3.9a31.93,31.93,0,0,1-7.5-13.06,30.88,30.88,0,0,1-22.31-5.49q2.76-15.48,5.18-31c-13.68.69-25.45-8.95-35.71-18l-24.07,19.82-12,9.91-6,5c-1.27,1-2.29,2.49-3.54,3.46-2.06,1.58-5.52.79-7.68-.14l-16.19-6.83,1.11-13.45-32.69-4.36c.82,1.31,0,3.12-1.34,4a13.75,13.75,0,0,1-4.41,1.37c-9.49,2.22-15.73,13.48-12.58,22.7-8-.43-14.53,7.23-15.7,15.12-.71,4.87.1,9.82.9,14.67-3,1-3.08,6.07-.16,7.19a19.33,19.33,0,0,0-14.58,5.07l3.7,1.15a5.06,5.06,0,0,1-5.53,2.94,11.82,11.82,0,0,1,1.11,10.38l3.61,1.87a50.91,50.91,0,0,0-18,6.22l3.83,1.53a5,5,0,0,1-5.53,2.94A12,12,0,0,1,248,223.34l17.6,14.6-14.93,22.85c69.42,1.77,212.81,2.2,212.81,2.2S477.53,239.94,477.57,239.78Z"
            transform="translate(-16.96 -23.94)"
        />
    </g>
	<a class="memphis" href="https://www.braininjurytenn.org/service-coordinators/carolyn-chambers" target="blank">
		<g id="teal">
        <path id="c47047" class="cls-7" d="M117.49,186l28.94,1.48-2.59,49.88-15.49-.38-29.26-.88,1-16.57.53-16.12,1-14.46,5.77-3.55,10.17.6" transform="translate(-16.96 -23.94)" />
        <path
            id="c47075"
            class="cls-7"
            d="M130.54,134.87v.43l2.32,1.58,1,1.22,2.3,2,4,2.38,2.07.2,9.2,4.67,7.23,3.58L157,183.37,146.74,183l-.29,4.44-28.94-1.47,1-18.14-2.33-5,.8-.3,2.48-2.25.35-9.94,2-.72,1.41-5.39.05-.9L122,143.2l.08-1.68.75-2.09L126,134l4.51.75"
            transform="translate(-16.96 -23.94)"
        />
        <path
            id="c47097"
            class="cls-7"
            d="M104.22,119.55l13.39-1.19,8.27.36,4.47,4.88.72,1.11,1,2.3-1.52,7.86-4.51-.75-3.2,5.4-.76,2.09-.07,1.68,1.24.12,0,.91-1.4,5.39-2,.72-.35,9.93L117,162.61l-.81.3-4.94-2.49-7.53-5-13.75.07-3.07.79-2.48,1.5L78.84,162l-2.11,2.09-1.65,1.13-2.61-4.39,8.28-4.13L82.64,153l-2.53-4.05-5.22,1.93-2.53-6.39,4-3,3.36.85,6.14-1.21,3-2.85,1.4-2.88L97,135l1.13-5.23L92,126.52l1.48-3.44,1.82-.15,7.22,2Z"
            transform="translate(-16.96 -23.94)"
        />
        <path
            id="c47167"
            class="cls-7"
            d="M103.66,155.37l-13.75.07-3.06.79-2.49,1.5L78.82,162l-2.11,2.1-1.66,1.09.86,5.71-6.88-2-1.38-3.15-3.82,0-1.2,5.69,2.75,3.76-2.35,10,31-.58.67.17,5,2.69,1.81,1.55,5.77-3.55,10.17.61,1-18.14-2.33-5h0l-4.94-2.5ZM61.47,185.11l-3.83-3.55-1.41-5.46-3,2.43-4.64,1.11,0,5.14,1.8-.31.26-2.83,3.24-1L59,186l1.89-.82Z"
            transform="translate(-16.96 -23.94)"
        />
        <path
            id="c47157"
            class="cls-7"
            d="M59,185.94l1.89-.82,33.2-.62.66.17,5,2.69,1.8,1.55-1,14.46-.53,16.12-1,16.57-8-.17-58.66-2v-1.73L34,228.47h9.37l4-9.39L49.47,217l5.45,2.52,3.39-2.18.74-4.37-3.58-2.1,3.34-4.36-.49-3.42-2.56-3.29-4.62-.3-1.23-2.37,5.48-2.64,1.15-4-.32-2.28L59,186"
            transform="translate(-16.96 -23.94)"
        />
    </g>
	</a>
	<a class="jackson" href="https://www.braininjurytenn.org/service-coordinators/jimmie-lee-morris" target="blank">
		<g id="yellow">
        <path id="c47109" class="cls-8" d="M228.37,190.92l-2.48,47.78-40.73-.63,1.07-31.3,6.87-1,.94-2,1.57-4.61.53-.77,4.61.47.16-1.66-2.4-.48-.21-2.56,4.93-3.31,4.12-1.71,6.24-.21,14.78,2" transform="translate(-16.96 -23.94)" />
        <path
            id="c47023"
            class="cls-8"
            d="M203.77,164.83l5-.76,5.66,9.43,9.2,3.82,5.47-1.24-.48,10.14-.28,4.7-14.77-2-6.24.21-4.12,1.71-4.93,3.31.21,2.56,2.4.48-.16,1.66-4.62-.47-.53.77L194,203.79l-.94,2-6.87,1L185,197.4l-4.51-7.71.14-5.38,3.54-.05,13.48-8.13,5.93-8.85.15-2.45"
            transform="translate(-16.96 -23.94)"
        />
        <path id="c47069" class="cls-8" d="M157,183.42l23.66.92-.14,5.38,4.51,7.71,1.19,9.37-1.07,31.3-3.68,0L162,237.74l-18.12-.4,2.59-49.89.29-4.44,10.25.43" transform="translate(-16.96 -23.94)" />
        <path id="c47113" class="cls-8" d="M204.85,139.9l-1.12,24.95-.14,2.45-5.94,8.85-13.48,8.13-3.54.05L157,183.42,158.63,151l5.71,2,10.37-12.39-.55-2.2,20.72,1.15,10,.38" transform="translate(-16.96 -23.94)" />
        <path
            id="c47033"
            class="cls-8"
            d="M147.68,112.65l5.16,4,.39,6.73L154,126l1.6,3.42,15.14,4.08,3.47,4.89.55,2.2L164.37,153l-5.71-2-7.23-3.58-9.21-4.68-2.06-.2-4-2.38-2.29-2-1-1.22-2.32-1.58v-.43l1.52-7.85,6.55-.62,1.32-3.83,7.44-6.51.29-3.39"
            transform="translate(-16.96 -23.94)"
        />
        <path
            id="c47053"
            class="cls-8"
            d="M151.65,87.29l19.21.08.09-1.92,3.49,2.71,5.76,5.19L184,97l6.24,2.92,6.7,5.92-2,33.68-20.72-1.14-3.47-4.89-15.14-4.09L154,126l-.76-2.55-.39-6.73-5.16-4-.17-3.19,3.23-.15.88-15.48,0-6.55"
            transform="translate(-16.96 -23.94)"
        />
        <path id="c47017" class="cls-8" d="M213.2,95.2l31.7.45-.33,3.75-.44,33.77,3.4.34-.16,3.62-38.74-1.57L207,136.8l-1.44,1.54-.72,1.54-10-.38,2-33.68,4.62-.49-.18-6.52,11.51-.21.29-3.4" transform="translate(-16.96 -23.94)" />
        <path
            id="c47183"
            class="cls-8"
            d="M185.74,51l29.49.67-2.08,43.55-.28,3.4-11.52.21.19,6.52-4.62.49-6.71-5.92L184,97l-3.81-3.68-5.76-5.2-3.49-2.7,1.41-23.1.35-.34,1.82.28,1.38.51,1.25,1.46,1.48.3,6.9-2.07.36-7.4-1.2-4h1.07"
            transform="translate(-16.96 -23.94)"
        />
        <path
            id="c47131"
            class="cls-8"
            d="M184,51l.73.07,1.21,4-.36,7.4-6.9,2.07-1.48-.3-1.25-1.46-1.38-.46-1.83-.28-.35.35L171,85.49l-.09,1.92-19.21-.08-32.36-1.78,6.09-5,3-12.14,4.08-8,1.17-10.59L184,51"
            transform="translate(-16.96 -23.94)"
        />
        <path
            id="c47095"
            class="cls-8"
            d="M133.69,49.78l-1.17,10.59-4.09,8-3,12.13-6.08,5,.1,2.2-14.68.78L101.63,81l8.21,1.35,6-2.92-1.6-4.3-5.4-4.86,4.74-.34,4.44-1,.66-6.76-3.21-5.37-.77-6.86,5.3.24-.66,3.74,2.33,2.17,3.55-1.44,1.48-4.49,7-.33"
            transform="translate(-16.96 -23.94)"
        />
        <path
            id="c47045"
            class="cls-8"
            d="M119.3,85.5l32.37,1.79,0,6.54-.89,15.48-3.23.15.18,3.2-.3,3.38L140,122.55l-1.31,3.83-6.55.62-1-2.3-.72-1.11-4.47-4.88-8.27-.36-10.88,1.54L102.49,125l1.73-5.43L102,117l-4.53-2.9-.17-3,4.16-5.18,1.38-6.34,6.72-2.94,1.18-4.35-6-3.71,14.68-.78-.11-2.2"
            transform="translate(-16.96 -23.94)"
        />
        <path id="c47077" class="cls-8" d="M247.38,137.16l-1.46,25.76-5.37,9.9-.66,13h.64l-11.89.38.48-10.14-5.47,1.24-9.2-3.82-5.66-9.43-5,.76,1.12-25,.71-1.53,1.44-1.54,1.6-1.25,38.74,1.57" transform="translate(-16.96 -23.94)" />
        <path id="c47079" class="cls-8" d="M217.92,51.76l42.86,1.1L259.57,59l7.26,10.84-10.21-.06-.15.15-.77,4,0,2L257.22,83l-9,12.57-3.73,3.84.33-3.75-31.7-.46,2.08-43.54,2.67.09" transform="translate(-16.96 -23.94)" />
        <path
            id="c47005"
            class="cls-8"
            d="M266.81,69.82l.87.91L271,78l-.33,6.48,3.2,10-.06,4.94-7.6,10.69-.37,5-2.42,1.62,1.42,4.55,6.83.45,1.17.65-.43,3.36-1.14,5.13-.59,1.33-1.82,2.25-.83,3.13-5.22-.05-.56-4.36-4.46.74-10.28-.33-3.4-.33.44-33.78,3.73-3.83L257.21,83l-1.49-7.11,0-2,.78-4,.15-.14,10.2.06"
            transform="translate(-16.96 -23.94)"
        />
        <path
            id="c47039"
            class="cls-8"
            d="M247.51,133.51l10.27.33,4.46-.74.56,4.36,5.22,0-1,6.11-5,4.7,1.74,5.59-2.11,7.15,6,11.59-.8,3.5-2.57,2.53L261,181.06l1.14,3.59,1.68,1.47,3.28.82.22,1-1.55,1.35-3.71.65-3.43-4.39-6.12,4.27-3.84-1.36-2.92,1.11-2-2.94-3.27-.83h-.64l.67-13,5.36-9.9,1.46-25.76.16-3.62"
            transform="translate(-16.96 -23.94)"
        />
        <path
            id="c47071"
            class="cls-8"
            d="M228.6,186.25l11.89-.38,3.27.84,2,2.94,2.93-1.12,3.84,1.36,6.12-4.27,3.43,4.4,0,2.11,2,1.64-1.13,6.63,3.44.82-.78,36.72L243.94,239l-16.41-.21-1.68,0L228.32,191l.28-4.7"
            transform="translate(-16.96 -23.94)"
        />
        <path
            id="c47135"
            class="cls-8"
            d="M293.25,134.85l-.36,4.67-1.2,8.3,2.25,1.7-.05,1.4-2.61.27-.55,5,4.17,2.61,4,4.6,1.24,3.23-1.55,3-2.38-.16-.35,5.64-1.49,0L292.85,179l-2.94-1.15-5.42.65-6.7,2.23-11,1.81-2.94,3.6-1.69-1.47L261,181.07l3.26-2.38,2.56-2.53.8-3.5-6-11.59,2.12-7.14-1.74-5.6,5-4.7,1-6.11.83-3.13L280.59,137l2.64-1.82,1.78-.15,8.24-.17"
            transform="translate(-16.96 -23.94)"
        />
        <path
            id="c47085"
            class="cls-8"
            d="M308.45,92.85l3.05,23,.37,2.45-3.2,2.76-3.8-.24-2.35,2-4,2-2.75.56-1,1.09-1.49,8.35-8.24.17-1.78.15L280.63,137l-11.74-2.63,1.82-2.25.59-1.33,1.14-5.12.42-3.37-1.16-.64-6.83-.45-1.42-4.56,2.42-1.62.37-5,7.6-10.69.06-4.94-3.2-9.95L282,85.88l3.65-1.52,4,.38,16.94,5.59,1.89,2.43"
            transform="translate(-16.96 -23.94)"
        />
        <path
            id="c47083"
            class="cls-8"
            d="M306,69.3l.44,3.34,7.31.77L312.89,84l-4.49,8.88-1.89-2.43-16.94-5.59-4-.38L281.92,86l-11.28-1.45L271,78l-3.3-7.26,10.46,2.82,1.92.29,2.89.12,1.95-.14,2.17-.45,2.78-1.08,1.87-1.07,1.46-1.08L306,69.37"
            transform="translate(-16.96 -23.94)"
        />
        <path
            id="c47161"
            class="cls-8"
            d="M296.27,35.8l5.21-.1L306,69.31l-12.84.81-1.46,1.08-1.86,1.07-2.78,1.07-2.18.46-1.94.13-2.9-.11-1.92-.29-10.45-2.82-.87-.91L259.56,59l1.21-6.13,2.91-4.33-4.32-18.17,5.75.23L281,32.39l-.4,3.78,15.65-.34"
            transform="translate(-16.96 -23.94)"
        />
    </g>
</a>
	<a class="murfreesboro" href="https://www.braininjurytenn.org/service-coordinators/holland-camara" target="blank">
		<g id="purple">
			<path id="c47099" class="cls-9" d="M335,184l8.78,1.45-.53,3.27-.35,3.16-.13,33.17L342,239.28l-38.41-.68,3.37-49H311l8.61-2.64,0-4.62,12.23.21L335,184" transform="translate(-16.96 -23.94)" />
			<path
				id="c47181"
				class="cls-9"
				d="M292.87,179l7.18.76-.13,4.53,4.08.21,3,5.09-3.37,49-38-.67.78-36.73-3.44-.82,1.13-6.63-2-1.64V190l3.71-.65,1.55-1.36-.21-1-3.29-.83,2.94-3.6,11-1.81,6.71-2.22,5.42-.66,2.94,1.15"
				transform="translate(-16.96 -23.94)"
        />
			<path
				id="c47101"
				class="cls-9"
				d="M330.68,157.37l-1.41,5.12-.14,2.54.19,1.58,1.37,1.47,2.36.66,2.5,2.44,2,5.21-.76,4.42-.43,1.43L335,184l-3.1-1.46-12.23-.21,0,4.63-8.6,2.63H307l-3-5.08-4.08-.21.13-4.53-7.18-.76,1.51-3.9h1.49l.35-5.64,2.37.16,1.56-3-1.24-3.23,4.05-2.17.13-1.55,3-2.07,1.86-.07,1.83,3.34,5.07-.37,4.58,2.21,4.22-1.71,7.07-3.61"
				transform="translate(-16.96 -23.94)"
        />
			<path
				id="c47081"
				class="cls-9"
				d="M344.18,120.21l-1.12,13.49-1.9,15.69-10.46,8L323.63,161l-4.22,1.71-4.58-2.21-5.07.37-1.83-3.34-1.86.07-3,2.07-.13,1.55-4.05,2.17-4-4.6-4.18-2.61.56-5,2.6-.27.06-1.4-2.25-1.7,1.19-8.3.37-4.67,1.49-8.35,1-1.09,2.75-.57,4-2,2.36-2,3.79.24,3.2-2.76-.37-2.46,32.68,4.37"
				transform="translate(-16.96 -23.94)"
        />
			<path
				id="c47117"
				class="cls-9"
				d="M386.1,151.55l9.51-.43,4.65,3-2.38,24.1-.11,4.41.74,2.58,4.05,8.51,1.46.3.36-.12-.38,3.86-7.11,2.13-6.58,7.07-8.76-.42-1.28-6.17-6.38-.87-2-10.93-3.57-1.1,1.16-5.3,6.51-5.29,4.31-6.56,4-17.33,1.85-1.46"
				transform="translate(-16.96 -23.94)"
        />
			<path id="c47055" class="cls-9" d="M343.79,185.43l6.91-3,6.91,1.82,4.56,2.73,6.13.5,3.56,1.09,2,10.94,6.38.86,1.28,6.17-.73,33.71-37.56-.94H342l.78-14.22.14-33.17.35-3.16.52-3.28" transform="translate(-16.96 -23.94)" />
			<path
				id="c47119"
				class="cls-9"
				d="M343.06,133.67l43.05,17.84L384.27,153l-4,17.33L376,176.86l-6.51,5.29-1.16,5.31-6.12-.51-4.56-2.72-6.91-1.82-6.91,3L335,184l1.34-1.74.44-1.43.75-4.42-2-5.2-2.5-2.45-2.36-.65-1.36-1.48-.2-1.58.15-2.53,1.41-5.13,10.46-8,1.9-15.69"
				transform="translate(-16.96 -23.94)"
        />
			<path id="c47103" class="cls-9" d="M432.69,223.18l.06,16.88-46.68.15h-5.26l.74-33.71,8.76.42,6.57-7.07,7.11-2.12.39-3.87,2.09-.87,4.58,1.68.72,4.74,8,3.51,2,3.19.77,3,2.4-.45,2.34,7.39,1,6Z" transform="translate(-16.96 -23.94)" />
			<path
				id="c47127"
				class="cls-9"
				d="M438.49,187.77l-.33,9.81-3.82,11.28-1.64,14.32-4.37-1.11-1-6-2.35-7.39-2.4.45-.76-3-2.06-3.19-7.94-3.5-.73-4.74,2.58-1.23,2.27.43,2.36,3.78,4.31,1,1.38-3,14.54-7.9"
				transform="translate(-16.96 -23.94)"
        />
			<path
				id="c47003"
				class="cls-9"
				d="M439.52,160.57l.78,19.58-1.82,7.65-14.54,7.91-1.38,3-4.31-1-2.36-3.79-2.27-.43L411,194.7,406.46,193l-2.09.87L404,194l-1.47-.3-4.05-8.52-.74-2.58.11-4.4,2.38-24.1.32-2L402,152l7.82.59,6.22,4.57,10.82,3.27,3-3.78,4.17,1,5.52,2.91"
				transform="translate(-16.96 -23.94)"
        />
			<path
				id="c47149"
				class="cls-9"
				d="M412.36,102.52l4,3.29,14.79,11,1.57.8,6.36,2.21,9.23.66-5.07,31.15-3.77,2,0,6.95L434,157.63l-4.18-1-2.95,3.78-10.83-3.27-6.22-4.57L402,152l-1.45.13-.32,2-4.65-3-.82-6.27,3.66-1,.16-3.31,4.32,0,.25-8.63L402.8,128l-.88-2.14.25-6.85,10.19-16.5"
				transform="translate(-16.96 -23.94)"
        />
			<path
				id="c47031"
				class="cls-9"
				d="M465.34,156.83l4.34,9.84,6.62,6.91-.33.18-.27.63-.53,9.16.57,6.28,1.45,1.57-1.07,3.91-2.5,6.44-.67,1.06-12.33-6.66-12-2.28-9.31,2.3-1,.91-.1.53.33-9.81,1.83-7.65-.79-19.59-.05-6.94,3.77-2,10.41,5,5.48,1.08,6.23-.84"
				transform="translate(-16.96 -23.94)"
        />
			<path id="c47051" class="cls-9" d="M438.15,197.59l.09-.53,1-.91,9.31-2.3,12,2.27L473,202.79l4.16,8.05L478.38,240l-44.88.1-.76-.07-.05-16.88,1.64-14.31,3.82-11.29" transform="translate(-16.96 -23.94)" />
		</g>
	</a>
	<a class="nashville" href="https://www.braininjurytenn.org/service-coordinators/angela-pearson" target="blank">
		<g id="pink">
			<path id="c47125" class="cls-10" d="M353.12,35.4l-.56,23.22L336.14,75.14l-22.37-1.7-7.31-.77L306,69.34l-4.54-33.61,30-.27,21.68-.06" transform="translate(-16.96 -23.94)" />
			<path
				id="c47147"
				class="cls-10"
				d="M387.66,34.54l19.56,1.86-1.72,6.41L403.3,46l-2.71,4.56-.49,4.22-3,3.62L394.48,63l-5.88,1.82L385.54,70l-3.89.45-4.78-3.61-3.91.69-3-.79-3.25,2.29-2.83-3.88-3-.79-8.21-5.82.56-23.22,5.32-.1,29.19-.72"
				transform="translate(-16.96 -23.94)"
        />
			<path
				id="c47021"
				class="cls-10"
				d="M352.58,58.61l8.21,5.81,3,.8,2.83,3.87,3.25-2.29,3,.79.12,7.61-5.3,7.1-2.4,16.63-4,3.3-2.34,7.26-12.7-.56,2.44-17.46-.94-4.72L346,85.11l3.06-3.86.48-3.29-.24-.72-2.18-1.07-5-1.13-6,.09L352.58,58.6h0Zm-2.66,20.11-.53.56,1.29-.44-.26-.29-.2.3-.3-.13"
				transform="translate(-16.96 -23.94)"
        />
			<path id="c47043" class="cls-10" d="M313.8,73.44l22.38,1.7,6-.09,5,1.13,2.19,1.06.24.73-.49,3.28L346,85.12l1.85,1.63.93,4.73-2.43,17.46-2.21,11.26-32.68-4.37-3.05-23,4.5-8.88.86-10.56" transform="translate(-16.96 -23.94)" />
			<path
				id="c47187"
				class="cls-10"
				d="M346.38,109l12.7.56,1.32,7,1.31,0,9.74-7.85,14.05,2.07,16.67,8.37-.24,6.85.88,2.14.37,3.87-.24,8.62-4.32,0-.16,3.3-3.67,1,.83,6.27-9.51.43-43.05-17.84,1.12-13.49,2.2-11.26"
				transform="translate(-16.96 -23.94)"
        />
			<path
				id="c47037"
				class="cls-10"
				d="M372.93,67.6l3.91-.7,4.78,3.61,3.89-.44,3.06-5.26,4,5,.27,3.85L400,78.69l.64,4.64,3.81,1.32,7.87,17.89L402.13,119l-16.67-8.37-14-2.07-9.74,7.85-1.31,0-1.32-7,2.34-7.26,4-3.31,2.4-16.63,5.3-7.09-.12-7.61"
				transform="translate(-16.96 -23.94)"
        />
			<path
				id="c47165"
				class="cls-10"
				d="M422.2,34.22l20.3,1.21L441,49.19l1.41,1.73-2.09,3.41,0,4.58-3.27.09.18,9.68-2.19,3.1-1.64,4.35L429,75.89l.44-4.12-1.77-1.26-1.91,3-.7,3.66-2.46-.78-1.71-3.69-7.81,5L412,80l-1.66-4.33-1.87.55.33,3.86-4.38,4.57-3.81-1.32L400,78.65l-7.19-5.08-.27-3.84-4-5L394.46,63l2.63-4.61,3-3.62.5-4.22,2.7-4.56,2.21-3.15,1.71-6.41,15-2.21"
				transform="translate(-16.96 -23.94)"
        />
			<path
				id="c47189"
				class="cls-10"
				d="M449.58,78.07l7.82,26,4.62,15.5-13.72.94-9.23-.66-6.36-2.21-1.57-.8-14.79-11-4-3.28-7.88-17.9,4.39-4.56-.34-3.86,1.88-.55L412.05,80l1-2.29,7.8-5,1.71,3.68,2.46.79.7-3.66,1.91-3,1.78,1.25L429,76l4.46.24,1.63-4.36,1.81.79,0,4,2.31.69,1-5,2.82-.18L445,75l1.46-.73,3.07,3.87"
				transform="translate(-16.96 -23.94)"
        />
			<path
				id="c47169"
				class="cls-10"
				d="M466,61.81l-.63,3.63-7.27,2.16-4.84,5.66L449.59,78l-3.07-3.87-1.47.73L443,72l-2.82.18-1,5-2.31-.69,0-4-1.81-.78,2.19-3.1L437.11,59l3.26-.09,0-4.58,4.83.89,1.55,4.59,2.07.88L466,61.81"
				transform="translate(-16.96 -23.94)"
        />
		</g>
	</a>
	<a class="chattanooga" href="https://www.braininjurytenn.org/service-coordinators/lisa-morgan" target="blank">
		<g id="blue">
			<path
				id="c47115"
				class="cls-11"
				d="M477.15,210.88l4.82-2.83,4.08,2.85,4.56.7,4.49-3.13-1.7-6,15-3.88,1,1.83,8.15,4.24,2.48.87,3.65,4.42,1.29,2.3.91,6.35,0,1L524.67,224l3.88,2.69L525.8,232h-2.5l-.67,3-4.91,5.05-13.34.11-26-.13-1.25-29.15"
				transform="translate(-16.96 -23.94)"
        />
			<path
				id="c47153"
				class="cls-11"
				d="M521.34,167.55l-.81,4.59,2.29,1.23.19,2,18.52,18.25L525.86,219.6v-1l-.9-6.36-1.29-2.29L520,205.49l-2.48-.87-8.16-4.24-1-1.83,1.27-3.18,4.27-2.42,1.46-5.18-2.3-.46v-1.69l-3.23-1.6.48-6.72-7.18-5,4.94-.21,13.24-4.5"
				transform="translate(-16.96 -23.94)"
        />
			<path
				id="c47061"
				class="cls-11"
				d="M503.17,172.28l7.18,5-.48,6.73,3.24,1.6v1.69l2.29.46L513.94,193l-4.26,2.41-1.27,3.19-15,3.88,1.7,6-4.49,3.14-4.56-.71L482,208l-4.82,2.83L473,202.82l.66-1.07,2.51-6.44,1.06-3.91-1.44-1.57-.58-6.27.53-9.16.27-.63.33-.19,4.39,1.08,1.55.14,6.32-1.43,5-.6,9.56-.52"
				transform="translate(-16.96 -23.94)"
        />
			<path
				id="c47007"
				class="cls-11"
				d="M537.81,142.68l12-.72,4.59.92,4.88-1.39.91,3.07,11.17-2.11-12.14,17.2-6.41,6.78-3.63,10,2.91,1.69-1.84,2.48L549,182l-2.11-.75-5.39,12.4L523,175.37l-.19-2.05-2.29-1.23.81-4.59,15.26-19.67,1.21-5.19"
				transform="translate(-16.96 -23.94)"
        />
			<path
				id="c47143"
				class="cls-11"
				d="M590.53,143.17l1.05,2,.24.76-.85,4.77-2.28,2.13-.61-2.3-1.31-.29-1.13,2.39-.53,6.28.57,2-.32,2.1-2.91,1.41,2,3.13-1,1.67-7-.83-.68,2.74,2.23,2.41-1,2.18-3.47,2.16.4,2.68-1.92,2-3.38-.56-1.5-3.18-1.77.27.2,3.81-3.18,3.5-5-3.52-3.33,1-.63-2.62-3.11-.6,1.84-2.48-2.91-1.69,3.63-10,6.41-6.79,12.14-17.19,13.15-8.17,1.5,2.21,3.42,1.85-1.54,4.41,2.62.36"
				transform="translate(-16.96 -23.94)"
        />
			<path
				id="c47121"
				class="cls-11"
				d="M601.17,156.36l-12.69,18.13-10.4,19-8.45,7.93-2.28-3,0-2.14-.82-3.09-3-3.76-1.37,1-1.33-.55,1.52-3.42,3.17-3.49-.19-3.81,1.76-.27,1.51,3.18,3.37.55,1.92-2-.39-2.69,3.47-2.16,1-2.17-2.24-2.42.68-2.73,7,.82,1-1.66-2-3.14,2.92-1.41.32-2.1-.58-2,.54-6.29,1.12-2.38,1.32.29.6,2.3,2.29-2.13.84-4.77-.23-.76-1.06-2,3.05,3.33,2.28,3.25,4.41-2.89.91,9.48"
				transform="translate(-16.96 -23.94)"
        />
			<path
				id="c47065"
				class="cls-11"
				d="M562.35,186.42l-1.53,3.41,1.34.55,1.36-1,3,3.76.82,3.08,0,2.14,2.28,3-5.1,10.8-.81,2.17-1.57,7.11,2.62,10,4,2.54-1.35,4.6-.3,0-28.6.85-9.9.41-10.88.13,4.91-5,.67-3h2.5l2.75-5.36-3.88-2.69,1.22-4.33,15.67-25.94,5.39-12.4L549,182l1.23-1.36,3.1.59.64,2.63,3.33-1,5,3.52"
				transform="translate(-16.96 -23.94)"
        />
			<path
				id="c47011"
				class="cls-11"
				d="M578.1,193.41l13.23,8.06-1.47,2.5,2.77.14,1.43,2.45.23,8.72-4.41,10,1.16.65-3.49,12.23-3.45.1-16.69.36,1.34-4.59-4-2.54-2.61-10,1.57-7.11.81-2.18,5.1-10.8,8.45-7.93"
				transform="translate(-16.96 -23.94)"
        />
			<path id="c47139" class="cls-11" d="M614.68,200.55l20.59,9.24-2.2,27.14-30.06.83-15.5.41,3.5-12.23-1.16-.65,4.4-10L594,206.6l2.94-2.1,4.86-1.4,10.86-.09,2-2.46" transform="translate(-16.96 -23.94)" />
			<path
				id="c47107"
				class="cls-11"
				d="M604.68,156.31l5.92,2.33.36.69v1.34l3.51,7,8.46,18.72.1,8.44-8.34,5.77-2,2.46-10.86.09L597,204.5,594,206.61l-1.43-2.46-2.77-.14,1.47-2.5-13.23-8.06,10.4-18.95,12.7-18.14,3.51,0"
				transform="translate(-16.96 -23.94)"
        />
		</g>
	</a>
	<a class="cookeville" href="https://www.braininjurytenn.org/service-coordinators/rick-hall" target="blank">
		<g id="red">
			<path id="c47015" class="cls-12" d="M462,119.52l12.3,11.58.69,3.33-8.47,10.43-1.19,12-6.23.85-5.48-1.09-10.41-5,5.07-31.15,13.72-.93" transform="translate(-16.96 -23.94)" />
			<path id="c47175" class="cls-12" d="M536.19,139.35l-.27.62,1.92,2.57,0,.16-1.21,5.19-15.27,19.66-13.23,4.5-4.57-15.7-.43-16.75,7.86-.75L517.1,136l10,3.37,7.46-2.78,1.66,2.73" transform="translate(-16.96 -23.94)" />
			<path id="c47177" class="cls-12" d="M497.21,136l5.94,3.65.42,16.75,4.57,15.7-4.94.21-9.56.53-5,.6-6.32,1.43-1.55-.14-4.39-1.08-6.62-6.91-4.34-9.83,1.18-12L475,134.47l9.33-2.11L497.2,136" transform="translate(-16.96 -23.94)" />
			<path
				id="c47185"
				class="cls-12"
				d="M536.35,116.21l2.74,7.81,2.31,2.24-1.95,10-3.22,3.08-1.66-2.73-7.46,2.77-10-3.36L511,138.86l-7.86.75L497.21,136l1.75-3.4-1.37-13.41,2.17-4.63-1.16-2.17.11-.72.52-.86,1.93-1.67,5.68-4.12,1.48-.56,3.72-.55,13.48,3.44,4.67,2.29,1.39,1.32.12,3.71,4.65,1.58"
				transform="translate(-16.96 -23.94)"
        />
			<path
				id="c47041"
				class="cls-12"
				d="M482.29,98.09l4.08,3.56-.51,2.52,2.08,2.1,2.77-2.17,4.71,2.25.39,3.69,2.78,2.31,1.15,2.16-2.16,4.64,1.36,13.4L497.19,136l-12.84-3.64L475,134.43l-.69-3.33L462,119.52,457.41,104l24.88-5.93"
				transform="translate(-16.96 -23.94)"
        />
			<path
				id="c47141"
				class="cls-12"
				d="M484.84,84.87,499,87.25,505.39,86l3.17-1.18.74-.88,3.28-4.58.27-2.83,3.76.07,3.83,8,9.71,2.51L530,89.32l11.89,5.26,8.36.8,1.92.73-5.1,4.93-8.2-.62-1,.63-1.5,15.13-4.65-1.58-.12-3.71-1.39-1.32-4.67-2.3L512,103.83l-3.73.55-1.47.56-5.69,4.12-1.93,1.67-.52.87-.1.72L495.81,110l-.39-3.68-4.7-2.26L488,106.23l-2.08-2.1.5-2.51-4.08-3.56,2.56-13.21"
				transform="translate(-16.96 -23.94)"
        />
			<path id="c47111" class="cls-12" d="M464.94,36.62l18.45.63-2.31,15.23-1.23,10.85L466,61.85l-17.2-1.15-2.07-.87-1.54-4.6-4.83-.89,2.09-3.41L441,49.2l1.5-13.76,22.43,1.18" transform="translate(-16.96 -23.94)" />
			<path id="c47159" class="cls-12" d="M466,61.81l13.87,1.48-.3,17.42,5.29,4.15-2.56,13.2L457.41,104l-7.82-26,3.66-4.76,4.84-5.66,7.27-2.16.63-3.63" transform="translate(-16.96 -23.94)" />
			<path
				id="c47087"
				class="cls-12"
				d="M481.09,52.48l4.58-2.3,12.38,3.18,6.45,2.24,4.63,4.12L512.62,64l.23,12.57-.27,2.83-3.29,4.58-.73.87L505.38,86,499,87.28,484.84,84.9l-5.29-4.15.3-17.42,1.24-10.85"
				transform="translate(-16.96 -23.94)"
        />
			<path
				id="c47133"
				class="cls-12"
				d="M533,47.73l4.6,1.7,9.8,7.18,1.06,5,1,1.27.06,12.71,1.26,4.54,3,8.85-3.56,6.46-8.36-.8L530,89.35l.14-2.24-9.72-2.51-3.83-8-3.75-.07L512.6,64l6.9-11.82,4.63.92.24-2.05L533,47.73"
				transform="translate(-16.96 -23.94)"
        />
			<path id="c47027" class="cls-12" d="M533.65,35.89,533,47.72,524.37,51l-.24,2.06-4.63-.92L512.6,64l-3.49-4.23-4.63-4.12L498,53.35l-12.38-3.17-4.58,2.3,2.31-15.24,34.57,0,13.79-1.16,1.91-.14" transform="translate(-16.96 -23.94)" />
			<path
				id="c47137"
				class="cls-12"
				d="M563.93,36.84l18,.88,5.49,9.66-5,.73-2.6-3.21-2.11-1.49-3.24-1.33-4.15-1-3.82-.2-6.19,1.31-4,3.29.11,2.5-2.68,1-1.27,2.29-.52,11.44-2.41.19-1-1.27-1.06-5-9.8-7.18-4.6-1.7.64-11.83,30.28,1"
				transform="translate(-16.96 -23.94)"
        />
			<path
				id="c47049"
				class="cls-12"
				d="M587.42,47.42l7.46,15.4-3.94,3.62L580.63,77.23l-5.79-.74-1.17,6.73-3.31,3.87.83,6.45-11.85-1.13-3.43,3.46-3.76.26-1.91-.73,3.55-6.46-3-8.85-1.26-4.54-.05-12.71,2.4-.19.53-11.44,1.26-2.29,2.69-1-.11-2.5,4-3.29,6.19-1.31,3.83.2,4.15,1,3.23,1.33,2.12,1.49,2.59,3.21,5-.73"
				transform="translate(-16.96 -23.94)"
        />
			<path
				id="c47035"
				class="cls-12"
				d="M552.15,96.12l3.76-.25,3.42-3.46,11.85,1.12,5.78,7.56,5.8,2.33,7.69,9.16,3.85,11.18-9.79,10.59-13.15,8.17-11.18,2.11-.9-3.08-4.89,1.4-4.58-.93-12,.73v-.16L535.91,140l.27-.62,3.21-3.08,2-10L539,124.07l-2.74-7.81,1.49-15.12,1.05-.64,8.21.62,5.09-4.92"
				transform="translate(-16.96 -23.94)"
        />
			<path
				id="c47145"
				class="cls-12"
				d="M609,153l-4.33,3.36-3.51,0-.91-9.47-4.41,2.89-2.28-3.25-3.05-3.33-2.61-.37,1.53-4.41-3.41-1.85-1.5-2.21,9.79-10.59,15.19-8.58,7.8-1.65,3.54-2.59,6.58-5.48,7.42,17,.89,1.63L634,123.4l.14,3.07L632,125.8l-2.53-.28-1.51,7-2.85,1-.58,6.33-6.15,1.94-7.19,6L609,153Z"
				transform="translate(-16.96 -23.94)"
        />
		</g>
	</a>
	<a class="knoxville" href="https://www.braininjurytenn.org/service-coordinators/patty-cruze" target="blank">
		<g id="bright-green">
			<path
				id="c47123"
				class="cls-13"
				d="M644.23,159.38l.69,1.43,9.77,6.85,4.94-.44,9.81,6.52.11.11-.16.47-1.94,2.54-6.12,21.61-2.63,2.95-4.05,2.73-10.59-.74-8.76,6.35-20.6-9.24,8.34-5.77-.1-8.44-8.46-18.72-3.51-7V159.3l-.36-.69,3.71-4,3-1.36,2.31-.81,2.92,1,.7,3,3-.87,2.09-2.48,1.93-.11,13.52,5.39.45.94Z"
				transform="translate(-16.96 -23.94)"
        />
			<path
				id="c47129"
				class="cls-13"
				d="M617.25,91.5,616.38,95l2.6,1.36.91,2.57,2,.25,2.26,1.1.69,1.71,2.55,3.49-6.58,5.47-3.54,2.6-7.8,1.65-15.19,8.58-3.85-11.18-7.68-9.16-5.8-2.33-5.78-7.56-.83-6.44,3.3-3.87,1.18-6.73,5.79.74L591,66.42l9.17,12.25,4.26,3.87,9.67,4.71,3.19,4.25"
				transform="translate(-16.96 -23.94)"
        />
			<path
				id="c47151"
				class="cls-13"
				d="M582.69,37.76l50.79.07,1.77,4.35-.73,6.28-6.32,1.17-2.48,5.81.87,5.14,2.9,3.63-1.69.61,1,12.72-4.47,1.64-.45,5.55-3.59,5-3,1.74-3.2-4.25-9.67-4.71-4.26-3.87L591,66.41l3.95-3.61-7.47-15.41L582,37.73l.72.07"
				transform="translate(-16.96 -23.94)"
        />
			<path
				id="c47013"
				class="cls-13"
				d="M660.37,37.35l8.74,20.77,0,1.31,1,2L668,62.48l-1.6-1.07-3.57,12-1.27,2L660,77l-1.8-3.53-5.07,8.81L651,82l-13-.41-.61,7-6-3.84L629,85.85l-5.18-1.09.45-5.56,4.47-1.64-1-12.71,1.69-.61-2.9-3.63-.87-5.14,2.48-5.81,6.32-1.17.73-6.28-1.77-4.35,3.38,0,23.5-.46"
				transform="translate(-16.96 -23.94)"
        />
			<path
				id="c47001"
				class="cls-13"
				d="M659.93,77l6.51,10.22-.26,0-1.86,1.42-11.19,14.69,2.77,4-8.3,6-4.54.34-6.4,7.82-1.83,1-7.42-17-2.54-3.49-.69-1.71-2.27-1.11-2-.24L619,96.31l-2.59-1.37.87-3.47,3-1.74,3.59-5L629,85.8l2.44-1.16,6,3.84.61-7,13,.41,2.11.33,5.07-8.81,1.8,3.53"
				transform="translate(-16.96 -23.94)"
        />
			<path
				id="c47105"
				class="cls-13"
				d="M635.74,124.11l10,11.08,1.19,6.92L645,147.29l5.23,7-6,5.1-.46-.93-13.51-5.4-1.93.11-2.09,2.48-3,.88-.71-3-2.92-1-2.31.81-3,1.36-3.71,4-5.92-2.32L609,153l2.2-5.19,7.18-6,6.16-1.94.57-6.33,2.85-1,1.51-7,2.54.29,2.07.67-.15-3.07,1.79.72"
				transform="translate(-16.96 -23.94)"
        />
			<path
				id="c47009"
				class="cls-13"
				d="M682.28,123.86l7,15.25,3.59,6.7,3.27,1.95.52,15.06-28.4,14.41-.8-.34,1.94-2.54.16-.47-.1-.12-9.81-6.51-4.94.44-9.77-6.86-.69-1.43,6-5.1-5.23-7,1.94-5.18-1.2-6.92,2-4.71,10.66.23,3.8-5.8,5.19.87,5.88,3.68,4,.37,5.08-6"
				transform="translate(-16.96 -23.94)"
        />
			<path
				id="c47155"
				class="cls-13"
				d="M730.14,121.09l6.36,22.19.2,2.37-4.05,4.88-18.3,11.85-1.28.66-14.16.12-2.27-.22-.51-15.06-3.27-1.95-3.6-6.69-7-15.26,3.94-4.36,3.67.2,6.18-7.26-2.45-7.75,5.27,2.44,10.63,7.26.8,2.62,4,1.65,5.15-1.51,10.67,3.91"
				transform="translate(-16.96 -23.94)"
        />
			<path
				id="c47093"
				class="cls-13"
				d="M687.2,89.22,694,99.38l-2.16-.81-1.34,1,2.62,3.57.5,1.55,2.44,7.75-6.17,7.25-3.67-.2-3.94,4.36-5.08,6-4-.38-5.89-3.68-5.18-.87-3.8,5.81-10.66-.23-2,4.7-10-11.07-.89-1.63,1.82-1,6.4-7.82,4.54-.34,8.3-6-2.76-4,11.18-14.69,1.86-1.42.26,0,1.94,2.09,18.83-.12"
				transform="translate(-16.96 -23.94)"
        />
			<path
				id="c47173"
				class="cls-13"
				d="M669.11,58.1l2.85-1,7.85.6L685.9,64l0,2.89,2.8,1.44,1.4-2.9,2.81,1.27-2.21,17.66-3.43,4.91-18.83.12-1.94-2.09L660,77.07l1.62-1.59,1.27-2,3.57-12,1.6,1.07,2.16-1.1-1-2,0-1.31"
				transform="translate(-16.96 -23.94)"
        />
			<path
				id="c47057"
				class="cls-13"
				d="M720.19,57.15,730.68,59l3,13-2,4-4.8-2.93L718,81.91,713.37,87l-8.88.41L694,99.38l-6.77-10.16,3.43-4.92,2.21-17.65,3.92,2.2,3.86-4.38,3.6.21,2.24.5,8-2.46.76-4.23,4.92-1.34"
				transform="translate(-16.96 -23.94)"
        />
			<path id="c47063" class="cls-13" d="M751,77.2l-7.94,7.93L736.76,97.3l-3.84-5-9-1.61-8.92-.5-1.61-3.06L718,81.94l8.92-8.77,4.79,2.93,2-4L738,73.34l4.49-6.76,6.53,7.84,2,2.78" transform="translate(-16.96 -23.94)" />
			<path
				id="c47089"
				class="cls-13"
				d="M736.77,97.28l-6.63,23.77-10.67-3.9-5.15,1.51-4-1.66-.8-2.61-10.63-7.26-5.26-2.44-.5-1.54-2.62-3.58,1.34-1,2.16.81,10.52-11.93,8.88-.41L715,90.12l8.92.5,9,1.61,3.84,5"
				transform="translate(-16.96 -23.94)"
        />
			<path id="c47029" class="cls-13" d="M743,85.11l-.53,2.9.62.85,3.57,3.2,8.1,5.39L764.88,107l5.8,6.31-5.64,19-28.58,11-6.35-22.19,6.63-23.77L743,85.11" transform="translate(-16.96 -23.94)" />
		</g>
	</a>
	<a class="johnson_city" href="https://www.braininjurytenn.org/service-coordinators/fredda-roberts" target="blank">
		<g id="green">
			<path
				id="c47163"
				class="cls-14"
				d="M872.32,25.16l-4.23,4.31-3.81.8-1.39,3.47-5.27,5.4-9.11,7.37L845.86,46l-7.54,7.35L832,51.06l-4.71,3.48-4.56.16-1.5-.57-4.52-4-3.31-1-6,1.29-12.26,1.22-5.49.33-1.72-3.18,6.84-5.67,1-11.59,30.93-1.64,5-.27,9.56-.39,20.81-1,1-2.8,9.41-.23"
				transform="translate(-16.96 -23.94)"
        />
			<path
				id="c47091"
				class="cls-14"
				d="M872.32,25.16,890,24.47l-2.85,3.12-2.86,25.1-.19,5.88-2.11.49-.18,0L880.27,59l-2.5-1.06-.47-1.47-.54.28-.14.09-5.21,2.88-5,4.62-.91,1.9-1.31,2.87-1.78.49-3-3.1-6-7.6-1.22-3.09L861,43.66l0-.38-3.42-4.12,5.28-5.4,1.38-3.47,3.82-.8,4.23-4.31"
				transform="translate(-16.96 -23.94)"
        />
			<path
				id="c47025"
				class="cls-14"
				d="M691,34.93l20-.31,5.33,4.44,4,6.51,2.39,9.09-2.47,2.52-4.92,1.34-.77,4.23-8,2.46-2.25-.5-3.6-.21-3.86,4.38-3.91-2.2-2.81-1.27-1.4,2.89-2.81-1.43,0-2.9-6.08-6.25L672,57.11l-2.86,1-8.75-20.77,5.58,0,25-2.38"
				transform="translate(-16.96 -23.94)"
        />
			<path id="c47067" class="cls-14" d="M774,32.54l-11.51,6.82-2.5-.56-2.29-1.45-1.8,1.36-3.32,2.22L739.29,53.22l0,3-8.54,2.86-10.5-1.87,2.47-2.52-2.38-9.09-4-6.5-5.33-4.44,47.86-1.47L774,32.54" transform="translate(-16.96 -23.94)" />
			<path id="c47171" class="cls-14" d="M824.14,72.59,831,73.68l1.91,4,3.48,6.23L817.66,95.25l-8.2,12.11-2.7.38L803,111l-5.25-4,1.74-6.73.46-7,6.31-6.85,4-1,2.3,0,4.5-2.33,3.52-4.29,3.61-6.06" transform="translate(-16.96 -23.94)" />
			<path
				id="c47073"
				class="cls-14"
				d="M795.69,31.54l-1,11.59-6.84,5.68L789.58,52l-2,2.75-10.92,6.14-4.84.93-1.9.81-5.27,2.69-2.44,2.33L760,70.76l-2.52,2.41L753,76.49l-1.15.72-.82,0-1.95-2.78-6.54-7.85L738,73.38l-4.32-1.29-3-13,8.53-2.86,0-3L752.53,41l3.33-2.22,1.79-1.36,2.29,1.44,2.5.57L774,32.57l21.73-1"
				transform="translate(-16.96 -23.94)"
        />
			<path
				id="c47059"
				class="cls-14"
				d="M787.56,54.73l6.93-1.33.2.88-.24,26.28.38,6.88L800,93.2l-.46,7-1.7-2L796.4,97.2h-.47l-2.66,1.56-1.84,1.08-6.74,5.5-9.43,7.28-4.54.7-5.8-6.3-10.08-9.54-8.1-5.39-3.57-3.19-.62-.85.53-2.9L751,77.23l.82,0,1.15-.72,4.51-3.32L760,70.75l2.15-3.12,2.44-2.33,5.26-2.69,1.9-.81,4.84-.93,10.93-6.14"
				transform="translate(-16.96 -23.94)"
        />
			<path
				id="c47179"
				class="cls-14"
				d="M789.6,52l5.48-.33,12.27-1.22,6-1.29,3.31,1,4.51,4,1.5.58,4.56-.16-3.1,18-3.61,6.06L817,82.93l-4.5,2.34-2.3,0-4,1L800,93.17l-5.13-5.77-.38-6.87.25-26.28-.21-.88-6.93,1.33,2-2.75"
				transform="translate(-16.96 -23.94)"
        />
			<path
				id="c47019"
				class="cls-14"
				d="M857.58,39.16,861,43.29l0,.37-8.81,12.1,1.21,3.09,6,7.6,3,3.1,1.79-.49L850.59,89.52,836.37,83.9l-3.48-6.23-1.91-4-6.87-1.09,3.1-18,4.71-3.48,6.37,2.24L845.82,46l2.66.56,9.1-7.38"
				transform="translate(-16.96 -23.94)"
        />
		</g>
	</a>
	<g id="Pins">
		<a href="https://www.braininjurytenn.org/service-coordinators/jimmie-lee-morris" target="blank"><path
            class="cls-15"
            d="M176.15,133.29a12.59,12.59,0,0,0-12.57,12.57c0,8.6,11.24,21.23,11.72,21.76a1.14,1.14,0,0,0,1.69,0c.48-.53,11.72-13.16,11.72-21.76A12.58,12.58,0,0,0,176.15,133.29Zm0,18.89a6.32,6.32,0,1,1,6.32-6.32A6.33,6.33,0,0,1,176.15,152.18Z"
            transform="translate(-16.96 -23.94)"
        /></a>
		<a href="https://www.braininjurytenn.org/service-coordinators/holland-camara" target="blank">
			<path
            class="cls-15"
            d="M416.91,152.8a12.59,12.59,0,0,0-12.57,12.57c0,8.6,11.24,21.23,11.72,21.76a1.14,1.14,0,0,0,1.69,0c.48-.53,11.72-13.16,11.72-21.76A12.58,12.58,0,0,0,416.91,152.8Zm0,18.89a6.32,6.32,0,1,1,6.32-6.32A6.33,6.33,0,0,1,416.91,171.69Z"
            transform="translate(-16.96 -23.94)"
        />
		</a>
		<a href="https://www.braininjurytenn.org/service-coordinators/rick-hall" target="blank">
			<path
            class="cls-15"
            d="M522.43,61.91a12.59,12.59,0,0,0-12.57,12.57c0,8.6,11.25,21.22,11.73,21.75a1.12,1.12,0,0,0,1.68,0C523.75,95.7,535,83.08,535,74.48A12.59,12.59,0,0,0,522.43,61.91Zm0,18.89a6.33,6.33,0,1,1,6.32-6.32A6.33,6.33,0,0,1,522.43,80.8Z"
            transform="translate(-16.96 -23.94)"
        />
		</a>
		<a href="https://www.braininjurytenn.org/service-coordinators/patty-cruze" target="blank">
			<path
            class="cls-15"
            d="M675.4,67.67a12.59,12.59,0,0,0-12.57,12.57c0,8.6,11.25,21.23,11.73,21.76a1.13,1.13,0,0,0,1.68,0c.48-.53,11.73-13.16,11.73-21.76A12.59,12.59,0,0,0,675.4,67.67Zm0,18.89a6.32,6.32,0,1,1,6.32-6.32A6.32,6.32,0,0,1,675.4,86.56Z"
            transform="translate(-16.96 -23.94)"
        />
		</a>
		<a href="https://www.braininjurytenn.org/service-coordinators/lisa-morgan" target="blank">
			<path
            class="cls-15"
            d="M553.47,198.92a12.58,12.58,0,0,0-12.57,12.56c0,8.6,11.25,21.23,11.73,21.76a1.13,1.13,0,0,0,1.68,0c.48-.53,11.73-13.16,11.73-21.76A12.58,12.58,0,0,0,553.47,198.92Zm0,18.89a6.33,6.33,0,1,1,6.32-6.33A6.33,6.33,0,0,1,553.47,217.81Z"
            transform="translate(-16.96 -23.94)"
        />
		</a>
		<a href="https://www.braininjurytenn.org/service-coordinators/fredda-roberts" target="blank">
			<path
            class="cls-15"
            d="M811.52,47.72A12.59,12.59,0,0,0,799,60.29c0,8.6,11.25,21.22,11.73,21.76a1.13,1.13,0,0,0,1.68,0c.48-.54,11.73-13.16,11.73-21.76A12.59,12.59,0,0,0,811.52,47.72Zm0,18.89a6.32,6.32,0,1,1,6.32-6.32A6.33,6.33,0,0,1,811.52,66.61Z"
            transform="translate(-16.96 -23.94)"
        />
		</a>
		<a href="https://www.braininjurytenn.org/service-coordinators/angela-pearson" target="blank">
			<path
            class="cls-15"
            d="M385.87,61.91A12.59,12.59,0,0,0,373.3,74.48c0,8.6,11.25,21.22,11.73,21.75a1.12,1.12,0,0,0,1.68,0c.48-.53,11.73-13.15,11.73-21.75A12.59,12.59,0,0,0,385.87,61.91Zm0,18.89a6.33,6.33,0,1,1,6.32-6.32A6.34,6.34,0,0,1,385.87,80.8Z"
            transform="translate(-16.96 -23.94)"
        />
		</a>
		<a href="https://www.braininjurytenn.org/service-coordinators/jimmie-lee-morris" target="blank">
			<path
            class="cls-15"
            d="M73.4,192.15a12.59,12.59,0,0,0-12.57,12.57c0,8.6,11.25,21.23,11.73,21.76a1.13,1.13,0,0,0,1.68,0C74.72,226,86,213.32,86,204.72A12.59,12.59,0,0,0,73.4,192.15Zm0,18.89a6.32,6.32,0,1,1,6.32-6.32A6.32,6.32,0,0,1,73.4,211Z"
            transform="translate(-16.96 -23.94)"
        />
		</a>
    </g>

</svg>
